<?xml version="1.0" encoding="utf-8"?>
<!-- Generator: Adobe Illustrator 22.1.0, SVG Export Plug-In . SVG Version: 6.00 Build 0)  -->
<svg version="1.1" id="Слой_1" xmlns="http://www.w3.org/2000/svg" xmlns:xlink="http://www.w3.org/1999/xlink" x="0px" y="0px"
	 viewBox="0 0 201.9 46.4" style="enable-background:new 0 0 201.9 46.4;" xml:space="preserve">
<style type="text/css">
	.st0{fill:url(#SVGID_1_);}
	.st1{fill:url(#SVGID_2_);}
	.st2{fill:url(#SVGID_3_);}
</style>
<linearGradient id="SVGID_1_" gradientUnits="userSpaceOnUse" x1="46.75" y1="718.8" x2="46.75" y2="765.2" gradientTransform="matrix(1 0 0 1 0 -718.8)">
	<stop  offset="0" style="stop-color:#00923C"/>
	<stop  offset="1" style="stop-color:#004619"/>
</linearGradient>
<rect x="45.6" class="st0" width="2.3" height="46.4"/>
<g>
	<g>
		
			<linearGradient id="SVGID_2_" gradientUnits="userSpaceOnUse" x1="127.45" y1="726.2645" x2="127.45" y2="758.2439" gradientTransform="matrix(1 0 0 1 0 -718.8)">
			<stop  offset="0" style="stop-color:#00923C"/>
			<stop  offset="1" style="stop-color:#004619"/>
		</linearGradient>
		<path class="st1" d="M53,39.3h1.6v-4h3.7V34h-3.7v-2.8h4.3v-1.3H53V39.3L53,39.3z M68.3,30.4c-0.6-0.4-1.3-0.5-2-0.5
			c-0.8,0-1.4,0.2-2,0.6s-1,0.9-1.4,1.6c-0.3,0.7-0.5,1.5-0.5,2.4V35c0,0.9,0.2,1.7,0.5,2.4s0.8,1.2,1.4,1.6c0.6,0.4,1.3,0.6,2,0.6
			c0.8,0,1.4-0.2,2-0.6s1-0.9,1.3-1.6s0.5-1.5,0.5-2.4v-0.5c0-0.9-0.2-1.7-0.5-2.4C69.3,31.3,68.9,30.8,68.3,30.4z M68.5,34.9
			c0,1.1-0.2,1.9-0.6,2.4s-0.9,0.8-1.6,0.8s-1.3-0.3-1.6-0.8c-0.4-0.6-0.6-1.4-0.6-2.4v-0.5c0-1,0.2-1.8,0.6-2.3s0.9-0.8,1.6-0.8
			s1.3,0.3,1.6,0.8c0.4,0.6,0.6,1.3,0.6,2.4V34.9z M80.5,34.4c0.3-0.4,0.4-0.9,0.4-1.6c0-0.9-0.3-1.6-0.9-2.1S78.6,30,77.5,30h-3.3
			v9.3h1.6v-3.6h1.8l1.9,3.6h1.7v-0.1l-2.1-3.9C79.8,35.1,80.2,34.8,80.5,34.4z M77.6,34.4h-1.7v-3.1h1.7c0.6,0,1,0.1,1.3,0.4
			s0.4,0.7,0.4,1.2s-0.2,0.9-0.5,1.1C78.6,34.3,78.1,34.4,77.6,34.4z M83.1,21.8c-0.4,1.3-0.9,2.2-1.7,2.7c-0.3,0.2-0.8,0.4-1.4,0.5
			s-1.1,0.2-1.7,0.2h-1.5c-0.6,0-1.1,0-1.3,0c-0.2,0-0.4-0.1-0.6-0.2c-0.1-0.1-0.2-0.7-0.2-1.9V11.6c0-1,0-1.6,0.1-2
			c0-0.1,0.3-0.2,0.7-0.3s0.8-0.1,1.1-0.1c0.1-0.1,0.1-0.2,0.1-0.4s0-0.3-0.1-0.4c-1.8,0.1-2.8,0.1-3.1,0.1c-0.3,0-1.3,0-3.1-0.1
			c-0.1,0.1-0.1,0.2-0.1,0.4s0,0.3,0.1,0.4c0.3,0,0.6,0,1.1,0.1s0.7,0.2,0.7,0.3c0.1,0.3,0.1,0.9,0.1,2V23c0,1,0,1.7-0.1,2
			c0,0.1-0.3,0.2-0.7,0.3c-0.5,0.1-0.8,0.1-1.1,0.1c-0.1,0.1-0.1,0.2-0.1,0.4c0,0.2,0,0.3,0.1,0.4c0.3,0,0.8,0,1.5,0s1.2,0,1.6,0
			c1.2,0,2.8,0,4.7,0.1s3.4,0.1,4.3,0.1c0-0.3,0.1-0.6,0.2-1s0.2-0.8,0.3-1.1c0.1-0.3,0.3-0.7,0.4-1.2c0.2-0.5,0.3-0.9,0.4-1.1
			C83.7,21.9,83.5,21.8,83.1,21.8C83.3,21.6,83.1,21.6,83.1,21.8z M134.7,8.5c-0.3,0-0.5,0-0.8,0.1c-0.2,0-0.6,0-0.9,0
			s-1.2,0-2.8-0.1c-0.1,0.1-0.1,0.2-0.1,0.4s0,0.3,0.1,0.4c0.1,0,0.2,0,0.4,0s0.4,0.1,0.6,0.1c0.2,0.1,0.4,0.2,0.6,0.3
			c0.2,0.2,0.2,0.3,0.2,0.5c0,0.4-0.1,1-0.3,1.9c-0.3,1.1-0.6,2.2-0.8,3.1c-0.3,1-0.6,2.1-1,3.4S129.2,21,129,22
			c-0.5-1.4-1.9-5.8-4.2-13.2c-0.1-0.3-0.2-0.4-0.3-0.4c-0.2,0-0.3,0.1-0.5,0.3s-0.3,0.4-0.4,0.6c-0.2,0.8-0.9,2.8-1.8,5.9
			c-1,3.1-1.7,5.4-2.1,6.9c-0.3-1.1-0.9-2.9-1.6-5.4c-0.8-2.5-1.2-4.1-1.5-4.9c-0.3-1-0.4-1.6-0.4-1.7s0.1-0.3,0.2-0.4
			c0.1-0.1,0.3-0.2,0.5-0.3s0.4-0.1,0.5-0.1s0.3,0,0.3,0c0.1,0,0.1-0.1,0.1-0.3s0-0.4,0-0.4c-0.2,0-0.5,0-0.9,0.1
			c-0.4,0-0.7,0-1,0.1c-0.3,0-0.6,0-1,0c-0.1,0-1.2,0-3.2-0.1c0,0,0,0.2,0,0.4s0,0.4,0,0.4c0.2,0,0.5,0,0.8,0.1s0.6,0.2,0.7,0.4
			c0.1,0.1,0.1,0.1,0.2,0.2c0.1,0.1,0.1,0.2,0.2,0.3s0.1,0.2,0.1,0.2c0,0.1,0.1,0.2,0.1,0.3c0.1,0.2,0.1,0.3,0.1,0.3
			c0,0.1,0.1,0.2,0.1,0.4c0.1,0.2,0.1,0.3,0.1,0.4c0.3,1.1,1,3.2,1.9,6.3s1.7,5.6,2.3,7.5c0,0.1,0.1,0.2,0.1,0.3
			c0.1,0.1,0.1,0.2,0.2,0.2c0.2,0,0.4-0.1,0.6-0.3c0.2-0.2,0.4-0.4,0.4-0.6c0.5-1.6,1.2-3.8,2-6.4s1.5-4.7,2-6.3c0,0,0.1,0.3,0.3,1
			c0.2,0.7,0.5,1.5,0.8,2.6c0.3,1,0.7,2.1,1.1,3.3c0.4,1.2,0.8,2.3,1.1,3.5c0.4,1.2,0.7,2.1,0.9,2.8c0,0.1,0.1,0.2,0.1,0.3
			c0.1,0.1,0.1,0.2,0.2,0.2c0.2,0,0.4-0.1,0.6-0.3c0.2-0.2,0.4-0.4,0.4-0.6c0.5-1.7,1.2-4.1,2-6.9c0.8-2.9,1.4-5,1.8-6.4
			c0.3-1.1,0.6-1.7,0.9-2c0.2-0.2,0.5-0.4,0.9-0.5s0.6-0.2,0.8-0.2c0,0,0.1-0.1,0.1-0.3s0-0.4,0-0.4C135.3,8.4,135,8.5,134.7,8.5z
			 M142.5,25c0,0.1-0.3,0.2-0.7,0.3c-0.5,0.1-0.8,0.1-1.1,0.1c-0.1,0.1-0.1,0.2-0.1,0.4c0,0.2,0,0.3,0.1,0.4c0.3,0,0.8,0,1.5,0
			s1.2,0,1.6,0c1.2,0,2.8,0,4.7,0.1s3.4,0.1,4.3,0.1c0-0.3,0.1-0.6,0.2-1s0.2-0.8,0.3-1.1c0.1-0.3,0.3-0.7,0.4-1.2
			c0.2-0.5,0.3-0.9,0.4-1.1c-0.1-0.1-0.3-0.2-0.7-0.2c-0.2,0-0.3,0.1-0.4,0.2c-0.3,0.7-0.5,1.3-0.8,1.7c-0.2,0.4-0.5,0.7-0.9,1
			c-0.4,0.2-0.8,0.4-1.5,0.5c-0.6,0.1-1.2,0.2-1.9,0.2h-1.3c-0.6,0-1.1,0-1.3,0s-0.4-0.1-0.6-0.2c-0.1-0.1-0.1-0.3-0.1-0.7
			c0-0.4,0-0.8,0-1.1v-5.1c0,0,0-0.1,0.1-0.1s0.1-0.1,0.3-0.1c0.1,0,0.2,0,0.3,0s0.2,0,0.4,0s0.3,0,0.4,0h0.4c1.6,0,2.6,0.1,2.8,0.2
			c0.1,0.1,0.2,0.2,0.3,0.4c0.1,0.2,0.2,0.6,0.4,1.3c0.1,0.1,0.2,0.2,0.4,0.2s0.4,0,0.4-0.1v-5c-0.1-0.1-0.2-0.1-0.4-0.1
			s-0.4,0.1-0.4,0.2c0,0.1,0,0.1-0.1,0.2c-0.1,0.3-0.1,0.5-0.2,0.7c0,0.2-0.1,0.3-0.2,0.5c-0.1,0.1-0.2,0.2-0.3,0.3
			c-0.1,0.1-0.3,0.1-0.5,0.2c-0.2,0-0.4,0.1-0.7,0.1c-0.2,0-0.6,0-1,0h-1.4c-0.3,0-0.6,0-0.8,0s-0.3-0.1-0.3-0.1v-5
			c0-0.9,0-1.6,0.1-1.9c0.1-0.2,0.7-0.3,1.8-0.3h2.3c0.8,0,1.4,0.2,1.9,0.5s0.9,1,1.1,2c0,0.1,0.1,0.2,0.4,0.2c0.2,0,0.4,0,0.5-0.1
			c0-0.2-0.2-0.7-0.4-1.6c-0.2-0.8-0.3-1.5-0.4-2c-1,0-2.5,0-4.4,0.1s-3.3,0.1-4.1,0.1c-0.3,0-1.3,0-3.1-0.1
			c-0.1,0.1-0.1,0.2-0.1,0.4s0,0.3,0.1,0.4c0.3,0,0.6,0,1.1,0.1s0.7,0.2,0.7,0.3c0.1,0.3,0.1,0.9,0.1,2v11.4
			C142.6,24,142.6,24.7,142.5,25z M176.1,25.8c0-0.2,0-0.3,0-0.4c-0.7-0.1-1.3-0.2-1.7-0.4c-0.4-0.2-0.9-0.6-1.3-1.2
			c-1.7-2.3-3.1-4.4-4.3-6.3c0.9-0.3,1.8-0.9,2.5-1.8c0.7-0.8,1.1-1.7,1.1-2.6c0-0.7-0.2-1.4-0.5-2s-0.8-1.1-1.3-1.5
			s-1.1-0.7-1.7-0.9s-1.2-0.3-1.9-0.3c-0.6,0-1.3,0-2.1,0s-1.4,0-1.7,0s-1.3,0-3.1-0.1C160,8.4,160,8.5,160,8.7s0,0.3,0.1,0.4
			c0.3,0,0.6,0,1.1,0.1s0.7,0.2,0.7,0.3c0.1,0.3,0.1,0.9,0.1,2v11.4c0,1.1-0.1,1.7-0.1,2c0,0.1-0.3,0.2-0.7,0.3
			c-0.5,0.1-0.8,0.1-1.1,0.1c-0.1,0.1-0.1,0.2-0.1,0.4c0,0.2,0,0.3,0.1,0.4c1.8-0.1,2.8-0.1,3.1-0.1s1.3,0,3.1,0.1
			c0.1-0.1,0.1-0.2,0.1-0.4c0-0.2,0-0.3-0.1-0.4c-0.3,0-0.6,0-1.1-0.1s-0.7-0.2-0.7-0.3c-0.1-0.3-0.1-0.9-0.1-2v-5h1.4
			c0.4,0,0.7,0.1,0.8,0.3c0.8,1.2,1.6,2.5,2.5,3.8s1.5,2.2,1.7,2.5c0.1,0.2,0.3,0.3,0.4,0.5c0.3,0.3,0.7,0.5,1.3,0.7
			s1.8,0.3,3.5,0.3C176.1,26.1,176.1,26,176.1,25.8z M165.9,17.2h-1.4v-5.6c0-1.1,0-1.8,0.1-2s0.5-0.3,1.3-0.3
			c1.4,0,2.4,0.4,3.1,1.1c0.7,0.7,1,1.7,1,2.9c0,1.1-0.4,2-1.2,2.8C167.9,16.8,166.9,17.2,165.9,17.2z M63,18.7
			c0.1,0.3,0.2,0.8,0.4,1.4H64v-5.6h-0.6c-0.1,0.7-0.2,1.1-0.4,1.4c-0.1,0.3-0.4,0.5-0.7,0.7c-0.3,0.1-0.8,0.2-1.5,0.2h-3.2v-6.6
			c0-0.4,0.1-0.7,0.2-0.8c0.1-0.1,0.4-0.2,0.8-0.2h2.3c1,0,1.8,0.1,2.3,0.3s0.9,0.5,1.1,1s0.4,1.2,0.6,2.1h0.7V8.3H53v0.8
			c0.7,0,1.1,0,1.4,0.1c0.3,0.1,0.5,0.2,0.5,0.4C55,9.8,55,10.2,55,10.7v13.1c0,0.5,0,0.9-0.1,1.1s-0.2,0.4-0.5,0.4
			c-0.3,0.1-0.8,0.1-1.4,0.1v0.8h7.1v-0.8c-0.8,0-1.4,0-1.7-0.1s-0.5-0.2-0.6-0.4c-0.1-0.2-0.1-0.6-0.1-1.1v-6h3.2
			c0.7,0,1.2,0.1,1.5,0.2C62.6,18.2,62.8,18.4,63,18.7z M106,16.8c0-2.8-0.7-5-2-6.8c-1.4-1.7-3.4-2.6-6.2-2.6
			c-2.7,0-4.8,0.9-6.1,2.6c-1.4,1.7-2,4-2,6.8s0.7,5.1,2,6.8c1.4,1.7,3.4,2.6,6.1,2.6s4.8-0.8,6.1-2.6C105.3,21.9,106,19.6,106,16.8
			z M101.9,22.8c-0.8,1.6-2.2,2.4-4.1,2.4s-3.3-0.8-4.1-2.4c-0.8-1.6-1.2-3.6-1.2-6c0-2.5,0.4-4.6,1.2-6.1c0.8-1.5,2.2-2.3,4.1-2.3
			c2,0,3.4,0.8,4.1,2.3c0.8,1.5,1.2,3.6,1.2,6.1C103.1,19.2,102.7,21.2,101.9,22.8z M189.4,17.3c-0.6-0.4-1.4-0.8-2.4-1.3l-1.3-0.5
			c-1-0.5-1.8-0.9-2.3-1.4s-0.8-1.2-0.8-2.1c0-1,0.3-1.8,0.9-2.3s1.3-0.8,2.3-0.8c1.2,0,2.1,0.4,2.8,1.1c0.7,0.7,1.1,1.7,1.3,2.9
			h0.7l-0.3-4.8h-0.6c-0.1,0.2-0.1,0.4-0.2,0.5s-0.2,0.2-0.3,0.2s-0.4-0.1-0.7-0.2c-0.8-0.4-1.7-0.6-2.7-0.6c-1.6,0-2.9,0.4-3.9,1.2
			s-1.5,2-1.5,3.5c0,1.3,0.4,2.4,1.2,3.2s1.9,1.5,3.4,2.1l1.2,0.5c1.1,0.5,1.8,1,2.4,1.6c0.5,0.6,0.8,1.3,0.8,2.1c0,1-0.3,1.9-1,2.5
			c-0.6,0.7-1.5,1-2.7,1c-1.3,0-2.4-0.5-3.2-1.4s-1.4-2-1.6-3.3h-0.8l0.4,5.5h0.7c0-0.2,0.1-0.4,0.2-0.5s0.2-0.2,0.4-0.2
			s0.4,0.1,0.8,0.2c0.5,0.2,1,0.3,1.4,0.4s1,0.2,1.7,0.2c1.9,0,3.3-0.5,4.4-1.4s1.6-2.2,1.6-3.8c0-1-0.2-1.8-0.6-2.5
			C190.6,18.2,190.1,17.7,189.4,17.3z M194,8.1h1.1v3.2h0.6V8.1h1.2V7.6H194V8.1L194,8.1z M201.2,7.6l-1.1,2.9L199,7.6h-0.8v3.7h0.6
			v-1.2l-0.1-1.6l1.1,2.9h0.5l1.1-2.9l-0.1,1.6v1.2h0.6V7.6H201.2z M94.6,31.9c0.4-0.5,0.9-0.8,1.6-0.8c0.6,0,1.1,0.1,1.4,0.4
			s0.5,0.8,0.6,1.5h1.6c-0.1-1-0.5-1.8-1.1-2.4s-1.4-0.8-2.5-0.8c-0.8,0-1.4,0.2-2,0.5c-0.6,0.4-1,0.9-1.3,1.6s-0.5,1.4-0.5,2.3v0.9
			c0,0.9,0.2,1.6,0.5,2.3c0.3,0.6,0.7,1.2,1.3,1.5c0.6,0.4,1.2,0.5,1.9,0.5c1.1,0,1.9-0.3,2.5-0.8c0.6-0.6,1-1.3,1.1-2.3h-1.6
			c-0.1,0.7-0.3,1.1-0.6,1.4c-0.3,0.3-0.8,0.4-1.4,0.4c-0.7,0-1.2-0.3-1.6-0.8S94,36,94,35v-0.8C94,33.2,94.2,32.4,94.6,31.9z
			 M105.4,35.1h3.8v-1.3h-3.8v-2.6h4.4v-1.3h-6v9.3h6v-1.3h-4.4V35.1z M118.5,37.1l-2.7-7.2h-2.1v9.3h1.6v-3.1l-0.2-4.1l2.7,7.2h1.1
			l2.7-7.2l-0.2,4.1v3.1h1.6v-9.3h-1.9L118.5,37.1z M129.3,35.1h3.8v-1.3h-3.8v-2.6h4.4v-1.3h-6v9.3h6v-1.3h-4.4V35.1z M137.1,31.3
			h2.9v8h1.6v-8h2.9V30h-7.4V31.3z M149.9,35.1h3.8v-1.3h-3.8v-2.6h4.4v-1.3h-6v9.3h6v-1.3h-4.4V35.1z M164.4,34.4
			c0.3-0.4,0.4-0.9,0.4-1.6c0-0.9-0.3-1.6-0.9-2.1s-1.4-0.7-2.5-0.7h-3.3v9.3h1.6v-3.6h1.8l1.9,3.6h1.7v-0.1l-2.1-3.9
			C163.7,35.1,164.1,34.8,164.4,34.4z M161.5,34.4h-1.7v-3.1h1.7c0.6,0,1,0.1,1.3,0.4s0.4,0.7,0.4,1.2s-0.2,0.9-0.5,1.1
			C162.5,34.3,162,34.4,161.5,34.4z M169.1,39.3h1.6V30h-1.6V39.3z M176.9,35.1h3.8v-1.3h-3.8v-2.6h4.4v-1.3h-6v9.3h6v-1.3h-4.4
			V35.1z M190.4,34.7c-0.4-0.3-1-0.5-1.7-0.7s-1.2-0.4-1.5-0.7c-0.3-0.2-0.5-0.5-0.5-0.9s0.1-0.7,0.4-0.9c0.3-0.2,0.7-0.3,1.2-0.3
			c0.6,0,1,0.1,1.3,0.4s0.5,0.7,0.5,1.1h1.6c0-0.5-0.1-1-0.4-1.5c-0.3-0.4-0.7-0.8-1.2-1s-1.1-0.4-1.7-0.4c-1,0-1.8,0.2-2.4,0.7
			s-0.9,1.1-0.9,1.9c0,0.9,0.4,1.6,1.3,2.1c0.4,0.3,1,0.5,1.8,0.8c0.7,0.2,1.3,0.5,1.5,0.7c0.3,0.2,0.4,0.5,0.4,0.9
			s-0.1,0.7-0.4,0.9c-0.3,0.2-0.7,0.3-1.3,0.3s-1.1-0.1-1.5-0.4c-0.3-0.3-0.5-0.7-0.5-1.2h-1.6c0,0.6,0.2,1.1,0.5,1.5s0.7,0.8,1.3,1
			s1.2,0.4,1.8,0.4c1,0,1.8-0.2,2.4-0.7s0.9-1.1,0.9-1.9c0-0.5-0.1-0.9-0.3-1.3C191.1,35.3,190.8,35,190.4,34.7z"/>
	</g>
</g>
<g>
	<g>
		
			<linearGradient id="SVGID_3_" gradientUnits="userSpaceOnUse" x1="20.3" y1="719.2" x2="20.3" y2="765.2" gradientTransform="matrix(1 0 0 1 0 -718.8)">
			<stop  offset="0" style="stop-color:#00923C"/>
			<stop  offset="1" style="stop-color:#004619"/>
		</linearGradient>
		<path class="st2" d="M3.1,39.3l-2.8,7.1h40l-2.8-7.1h-3.9v-5.5c0.5-0.2,0.9-0.4,1.4-0.6c3.3-1.9,4.8-5.3,3.4-7.6
			c-0.9-1.5-2.7-2.2-4.8-2l0,0c0-3.1-1.1-5.9-3-8c0.2-0.6,0.3-1.3,0.3-2V2.4H31l-0.1-1V1.3l0,0V0.5c-0.2,0-3.8,0.2-6.3,1.2
			c-1.4,0.6-2.7,1.7-3.7,3.3c-0.8-0.8-2.3-2.1-4.6-3.3C13.8,0.4,10,0.4,9.8,0.4v0.8l0,0v12.3c0,0.7,0.1,1.3,0.3,1.9
			c-1.9,2.2-3,5-3,8.1l0,0c-2.1-0.2-4,0.4-4.9,2c-1.4,2.4,0.1,5.7,3.4,7.6c0.5,0.3,1,0.5,1.5,0.7v5.4L3.1,39.3L3.1,39.3z M36.3,41.3
			l1.2,3.1H3.3l1.2-3.1h2.6l0,0h26.7l0,0H36.3z M34.5,25.5c1.1,0,2,0.4,2.4,1.1c0.8,1.4-0.5,3.6-2.7,4.9c-0.1,0.1-0.3,0.1-0.4,0.2
			v-6.1C34,25.5,34.3,25.5,34.5,25.5z M31.8,32.4c-0.4,0.1-0.8,0.1-1.2,0.1c-0.6,0-1.6-0.2-2.1-1.1c-0.5-0.8-0.1-1.8,0.1-2.3
			c0.5-1,1.4-1.9,2.6-2.6c0.2-0.1,0.4-0.2,0.5-0.3L31.8,32.4L31.8,32.4z M31.8,23.5V24c-0.5,0.2-1,0.4-1.5,0.7
			c-1.5,0.9-2.7,2.1-3.4,3.5c-0.7,1.5-0.8,3-0.1,4.2s2,1.9,3.6,2c0.2,0,0.3,0,0.5,0c0.3,0,0.6,0,0.9-0.1v5H21.4V22.2
			c3.7-0.1,6.9-1.9,8.5-4.6C31.1,19.3,31.8,21.3,31.8,23.5z M19.4,13.2h2.1c2.7,0,5.2,1.1,7.1,2.8c-1.2,2.5-4,4.2-7.3,4.2h-1.6
			c-3.3,0-6.1-1.7-7.3-4.2C14.2,14.2,16.6,13.2,19.4,13.2z M25.4,3.5c1.1-0.4,2.5-0.7,3.7-0.9v10.9c0,0.1,0,0.2,0,0.3
			c-2.1-1.6-4.7-2.6-7.6-2.6h-0.9c0.2-1,0.7-2.7,1.4-4.2C23,5.2,24.1,4,25.4,3.5z M19.9,6.8c-0.8,1.7-1.2,3.5-1.4,4.4
			c-2.5,0.2-4.8,1.1-6.7,2.6c0-0.1,0-0.2,0-0.3v-11c1.1,0.1,2.6,0.4,3.6,0.9C18,4.8,19.4,6.3,19.9,6.8z M6.6,31.5
			c-2.3-1.3-3.5-3.6-2.7-4.9c0.5-0.9,1.8-1.2,3.2-1v6.2C6.9,31.7,6.7,31.6,6.6,31.5z M9,26.2c0.2,0.1,0.3,0.1,0.5,0.2
			c1.2,0.7,2.1,1.6,2.6,2.6c0.2,0.5,0.6,1.5,0.1,2.3c-0.5,0.8-1.5,1-2.1,1.1c-0.4,0-0.7,0-1.1-0.1V26.2z M9,34.4
			c0.3,0,0.5,0.1,0.8,0.1c0.2,0,0.3,0,0.5,0c1.7-0.1,2.9-0.8,3.6-2c0.7-1.2,0.7-2.7-0.1-4.2c-0.7-1.4-1.9-2.6-3.4-3.5
			c-0.5-0.3-1-0.5-1.5-0.7v-0.5c0-2.2,0.7-4.3,1.9-6c1.6,2.7,4.8,4.5,8.5,4.6v17.2H8.9L9,34.4L9,34.4z"/>
	</g>
</g>
</svg>
